<?xml version="1.0" standalone="no"?>
<!DOCTYPE svg PUBLIC "-//W3C//DTD SVG 20010904//EN"
 "http://www.w3.org/TR/2001/REC-SVG-20010904/DTD/svg10.dtd">
<svg version="1.0" xmlns="http://www.w3.org/2000/svg"
 width="1028.000000pt" height="1028.000000pt" viewBox="0 0 1028.000000 1028.000000"
 preserveAspectRatio="xMidYMid meet">
<metadata>
Created by potrace 1.16, written by Peter Selinger 2001-2019
</metadata>
<g transform="translate(0.000000,1028.000000) scale(0.100000,-0.100000)"
fill="#000000" stroke="none">
<path d="M4650 9315 c-91 -267 -169 -485 -173 -485 -4 0 -219 146 -476 325
-258 179 -475 327 -483 330 -12 5 -14 0 -12 -17 2 -13 29 -183 59 -378 30
-195 61 -390 69 -432 7 -43 9 -78 5 -78 -5 0 -52 34 -105 76 -110 85 -200 147
-324 221 -96 58 -263 144 -268 138 -2 -1 17 -31 43 -66 140 -191 270 -446 385
-759 23 -63 46 -127 52 -141 l9 -27 182 93 c421 213 853 345 1349 411 163 22
661 30 840 15 230 -20 444 -55 652 -107 54 -14 104 -23 111 -20 7 2 15 36 18
80 24 281 122 690 216 899 17 37 27 67 23 67 -16 0 -243 -203 -331 -296 -71
-75 -211 -240 -248 -293 -2 -2 -5 -2 -7 0 -3 2 -19 211 -36 464 -17 253 -33
461 -34 463 -2 1 -129 -136 -282 -305 -421 -465 -508 -558 -517 -558 -9 0
-142 209 -391 615 -76 124 -144 231 -150 237 -9 10 -51 -104 -176 -472z"/>
<path d="M5195 8304 c-532 -43 -1006 -167 -1450 -379 l-100 -48 73 -18 c186
-46 339 -175 436 -367 15 -30 25 -56 22 -59 -2 -3 -24 8 -48 25 -68 46 -121
70 -218 98 -78 23 -106 26 -194 22 -95 -3 -109 -6 -178 -41 -222 -109 -317
-389 -247 -730 20 -100 75 -259 104 -300 49 -70 -26 -40 -125 51 -109 98 -190
247 -224 414 -33 158 -15 387 40 507 13 30 22 56 20 59 -3 2 -36 -19 -73 -49
-374 -292 -665 -607 -918 -994 -101 -155 -254 -424 -243 -425 2 -1 94 -16 206
-34 112 -19 205 -35 207 -38 2 -2 -21 -35 -52 -73 -312 -388 -620 -1080 -719
-1615 -32 -176 -43 -316 -23 -308 22 8 536 168 607 189 56 16 63 16 58 2 -10
-26 -45 -232 -58 -348 -20 -169 -17 -789 5 -985 36 -321 94 -608 167 -815 37
-106 122 -289 139 -299 29 -18 401 330 601 563 158 183 365 457 473 623 31 48
61 89 66 92 11 7 22 -24 60 -179 72 -291 94 -482 95 -810 1 -339 -27 -605
-109 -1037 -19 -102 -35 -189 -35 -192 0 -14 308 -155 415 -191 449 -149 893
-179 1385 -94 409 71 849 243 1188 465 62 41 116 74 120 74 4 0 36 -115 71
-255 35 -140 67 -255 72 -255 12 0 170 113 289 208 128 102 387 363 490 492
331 418 545 908 630 1443 12 72 24 152 28 177 l7 44 155 -172 c85 -95 158
-172 162 -172 20 0 125 388 167 615 46 250 55 357 55 680 0 332 -9 441 -60
695 -103 519 -341 1067 -684 1575 l-75 110 -12 -75 c-6 -41 -12 -89 -12 -107
-2 -63 2 -66 -285 244 l-30 33 59 52 58 53 -12 54 c-14 67 -52 142 -98 199
-32 39 -39 43 -67 38 -54 -11 -134 -56 -191 -107 -35 -33 -59 -48 -67 -43 -7
5 -38 27 -69 51 -53 40 -256 149 -264 141 -2 -1 28 -46 67 -98 69 -93 168
-253 168 -269 0 -5 78 -73 173 -152 169 -140 387 -349 387 -371 0 -7 -4 -7
-12 0 -22 18 -118 51 -202 69 -63 14 -128 18 -286 18 -228 0 -314 -13 -450
-66 l-75 -29 -29 32 c-154 173 -330 359 -421 444 l-109 103 0 69 c0 83 30 169
87 244 21 27 36 52 33 55 -9 10 -114 -19 -177 -48 -35 -17 -87 -48 -115 -70
-28 -21 -54 -39 -58 -39 -4 0 -33 17 -64 39 -114 77 -319 174 -467 222 -63 20
-75 21 -130 10 -167 -34 -431 -175 -533 -284 l-23 -25 28 -20 c49 -35 216
-120 287 -147 102 -38 241 -56 429 -54 89 1 198 -4 243 -10 l81 -13 109 -96
c151 -134 484 -474 484 -494 0 -3 -37 6 -82 19 -184 53 -238 57 -733 58 -396
0 -470 3 -531 17 -97 23 -165 51 -256 106 -201 119 -330 298 -359 497 -10 64
-15 76 -33 80 -28 5 -272 45 -280 45 -16 0 -1 24 51 80 118 128 319 269 456
320 37 14 67 27 67 30 0 3 -39 38 -87 79 l-86 74 39 34 c70 60 236 165 354
224 205 103 405 169 659 220 l146 29 95 -46 c158 -76 489 -280 682 -421 l47
-34 15 23 c39 60 96 248 96 320 0 51 12 52 101 11 233 -109 663 -415 897 -637
l92 -89 -46 109 c-110 261 -159 420 -184 593 l-12 82 -71 61 c-249 214 -578
383 -962 493 -163 48 -159 49 -130 -26 31 -79 62 -207 71 -292 l6 -68 -158
159 c-170 170 -281 260 -392 318 l-70 36 -283 3 c-156 2 -306 1 -334 -1z
m1637 -2813 c107 -72 227 -138 336 -183 l62 -27 -2 -262 -3 -263 -135 -109
c-356 -286 -676 -459 -906 -489 -108 -14 -127 -8 -154 44 -46 89 -135 258
-200 378 -130 241 -200 378 -200 389 0 16 210 170 374 273 250 159 508 272
723 318 1 0 49 -31 105 -69z m1118 -96 c64 -188 90 -331 97 -533 6 -192 -5
-307 -42 -437 -27 -91 -71 -195 -83 -195 -4 0 -18 21 -31 48 -43 89 -150 237
-255 354 l-106 117 0 263 1 263 112 73 c62 40 143 97 181 127 38 31 73 52 77
48 4 -4 26 -62 49 -128z m-375 -1241 c59 -82 132 -236 148 -309 10 -50 9 -67
-10 -141 -60 -230 -178 -445 -328 -598 -56 -57 -131 -116 -147 -116 -4 0 -8
38 -8 85 0 47 -5 129 -11 183 -10 91 -45 277 -56 295 -3 4 -23 -8 -45 -28 -88
-80 -261 -176 -428 -237 -159 -59 -139 -66 -211 70 -104 196 -140 265 -170
318 -35 62 -36 74 -6 74 47 0 176 43 275 92 114 55 332 197 460 298 45 36 94
68 109 71 16 4 107 7 205 8 l176 1 47 -66z"/>
</g>
</svg>
